<svg xmlns="http://www.w3.org/2000/svg" xmlns:xlink="http://www.w3.org/1999/xlink" id="Layer_1" x="0" y="0" version="1.1" viewBox="196.3 286.5 219.7 219.7" xml:space="preserve" style="enable-background:new 196.3 286.5 219.7 219.7"><style type="text/css">.st0{fill:#737374}.st1{fill:none;stroke:#fff;stroke-width:8;stroke-linecap:round;stroke-linejoin:round;stroke-miterlimit:10}</style><g><path d="M416,396.3c0,60.7-49.2,109.9-109.9,109.9c-28.3,0-54.1-10.7-73.5-28.2c-22.3-20.1-36.3-49.2-36.3-81.6 c0-60.7,49.2-109.9,109.9-109.9S416,335.6,416,396.3z" class="st0"/><g><line x1="310" x2="310" y1="328.9" y2="357.7" class="st1"/><polyline points="310 357.7 375.3 357.7 375.3 434.9 244.7 434.9 244.7 357.7 288.4 357.7" class="st1"/><line x1="288.4" x2="331.6" y1="415.4" y2="415.4" class="st1"/><polygon points="351.8 415.4 351.8 415.4 351.8 415.4" class="st1"/><polygon points="351.8 396.3 351.8 396.3 351.8 396.3" class="st1"/><polygon points="351.8 377.2 351.8 377.2 351.8 377.2" class="st1"/><polygon points="330.9 396.3 330.9 396.3 330.9 396.3" class="st1"/><polygon points="310 396.3 310 396.3 310 396.3" class="st1"/><polygon points="289.1 396.3 289.1 396.3 289.1 396.3" class="st1"/><polygon points="268.2 396.3 268.2 396.3 268.2 396.3" class="st1"/><polygon points="330.9 377.2 330.9 377.2 330.9 377.2" class="st1"/><polygon points="310 377.2 310 377.2 310 377.2" class="st1"/><polygon points="289.1 377.2 289.1 377.2 289.1 377.2" class="st1"/><polygon points="268.2 377.2 268.2 377.2 268.2 377.2" class="st1"/><polygon points="268.2 415.4 268.2 415.4 268.2 415.4" class="st1"/></g></g></svg>